<svg width="151" height="33" viewBox="0 0 151 33" fill="none" xmlns="http://www.w3.org/2000/svg">
<path d="M12.3139 18H6.44526C3.99088 18 2 16.1218 2 13.8026V5.19745C2 2.87989 3.98905 1 6.44526 1H13.5967C12.7993 1.07409 12.0274 1.23434 11.2865 1.48591C10.2336 1.84431 9.37774 2.38364 8.71898 3.10217C8.06022 3.8207 7.72993 4.68224 7.72993 5.68853C7.72993 6.76546 8.00912 7.64079 8.56752 8.30935C9.12409 8.97963 9.79745 9.48277 10.5839 9.81705C11.3686 10.1531 12.3832 10.4873 13.6259 10.8233C14.6405 11.1111 15.4325 11.3627 16.0036 11.578C16.573 11.7934 17.0493 12.0933 17.4307 12.4758C17.8102 12.8583 18 13.3494 18 13.9473C18 14.833 17.6642 15.5222 16.9927 16.0116C16.3212 16.5026 15.3887 16.7473 14.1971 16.7473C12.8777 16.7473 11.8704 16.5371 11.1734 16.1184C10.4763 15.6997 10.1277 15.1311 10.1277 14.4125C10.1277 13.887 10.2737 13.4786 10.5657 13.1909C10.8577 12.9031 11.0036 12.748 11.0036 12.7239C11.0036 12.605 10.8449 12.4361 10.5274 12.2208C10.2099 12.0054 9.84854 11.8968 9.44343 11.8968C8.73358 11.8968 8.15693 12.1122 7.7135 12.543C7.27007 12.9737 7.04745 13.5372 7.04745 14.2316C7.04745 15.4533 7.68066 16.3993 8.9489 17.0678C9.86861 17.5589 10.9927 17.8656 12.3139 18Z" fill="#FA865F"/>
<path d="M15.1409 0H5.85727C2.62817 0 0 2.50323 0 5.57883V14.4212C0 17.4985 2.62817 20 5.85727 20H15.1409C18.3718 20 21 17.4968 21 14.4212V5.57883C21 2.50323 18.3718 0 15.1409 0ZM20.4986 14.4212C20.4986 17.2382 18.1003 19.5225 15.1427 19.5225H5.85727C2.89967 19.5225 0.501379 17.2382 0.501379 14.4212V5.57883C0.501379 2.76183 2.89967 0.477545 5.85727 0.477545H15.1409C16.4025 0.477545 17.5609 0.896474 18.4768 1.59469C19.5194 2.55323 20.2072 4.15999 19.4289 5.76847C19.3257 6.03913 19.1719 6.28739 18.9673 6.51151C18.5528 6.96664 18.0044 7.19421 17.3256 7.19421C16.922 7.19421 16.5654 7.0856 16.2505 6.8701C15.9355 6.6546 15.7781 6.48737 15.7781 6.36669C15.7781 6.34256 15.8794 6.24774 16.0803 6.07879C16.2812 5.91156 16.4641 5.7133 16.6288 5.48573C16.7917 5.25817 16.8749 4.98922 16.8749 4.67718C16.8243 4.03069 16.484 3.52728 15.8559 3.16869C15.226 2.8101 14.4839 2.62908 13.6295 2.62908C12.6739 2.62908 11.8376 2.83941 11.1208 3.25834C10.4041 3.67727 10.0457 4.25825 10.0457 5.00129C10.0457 5.67192 10.1959 6.20464 10.4982 6.59943C10.8005 6.99422 11.253 7.31316 11.8557 7.55107C12.4585 7.79071 13.4142 8.11482 14.7228 8.52168C16.055 8.92854 17.0994 9.30609 17.8542 9.65434C18.4949 9.94914 19.0144 10.3353 19.4289 10.8025C19.4343 10.8094 19.4398 10.8146 19.4452 10.8215C20.1475 11.6266 20.4986 12.6558 20.4986 13.7023V14.4212Z" fill="#FA865F"/>
<path d="M35.3437 32.9275C33.588 32.9275 32.0006 32.6253 30.5816 32.0209C29.1867 31.4166 28.0804 30.5463 27.2627 29.41C26.4449 28.2738 26.0241 26.9321 26 25.3849H31.4114C31.4835 26.4245 31.8443 27.2464 32.4937 27.8508C33.1671 28.4551 34.081 28.7573 35.2354 28.7573C36.4139 28.7573 37.3399 28.4793 38.0133 27.9233C38.6867 27.3431 39.0234 26.5937 39.0234 25.675C39.0234 24.9256 38.7949 24.3092 38.338 23.8257C37.881 23.3422 37.3038 22.9675 36.6063 22.7015C35.9329 22.4114 34.9949 22.0972 33.7924 21.7587C32.157 21.2752 30.8221 20.8038 29.788 20.3445C28.7778 19.861 27.9 19.1478 27.1544 18.205C26.4329 17.238 26.0722 15.9568 26.0722 14.3612C26.0722 12.8624 26.4449 11.5569 27.1905 10.4449C27.9361 9.33287 28.9823 8.48675 30.3291 7.90655C31.6759 7.30218 33.2152 7 34.9468 7C37.5443 7 39.6487 7.64063 41.2601 8.9219C42.8956 10.179 43.7975 11.9437 43.9658 14.2162H38.4101C38.362 13.3459 37.9892 12.6327 37.2918 12.0767C36.6183 11.4965 35.7165 11.2064 34.5861 11.2064C33.6 11.2064 32.8063 11.4603 32.2051 11.9679C31.6278 12.4756 31.3392 13.2129 31.3392 14.1799C31.3392 14.8568 31.5557 15.4249 31.9886 15.8842C32.4456 16.3194 32.9987 16.682 33.6481 16.9721C34.3215 17.238 35.2595 17.5523 36.462 17.9149C38.0975 18.3984 39.4323 18.8819 40.4664 19.3654C41.5006 19.8489 42.3905 20.5742 43.1361 21.5411C43.8816 22.5081 44.2544 23.7773 44.2544 25.3487C44.2544 26.7025 43.9057 27.9596 43.2082 29.1199C42.5107 30.2803 41.4886 31.2111 40.1418 31.9121C38.7949 32.589 37.1956 32.9275 35.3437 32.9275Z" fill="#18063C"/>
<path d="M46.9736 22.5565C46.9736 20.5258 47.3705 18.7248 48.1641 17.1534C48.9819 15.5821 50.0762 14.3733 51.4471 13.5272C52.842 12.6811 54.3933 12.258 56.1009 12.258C57.592 12.258 58.8907 12.5602 59.9971 13.1646C61.1274 13.7689 62.0293 14.5305 62.7027 15.4491V12.5844H67.7895V32.6736H62.7027V29.7364C62.0534 30.6792 61.1515 31.4649 59.9971 32.0934C58.8667 32.6978 57.5559 33 56.0648 33C54.3812 33 52.842 32.5649 51.4471 31.6946C50.0762 30.8243 48.9819 29.6034 48.1641 28.0321C47.3705 26.4365 46.9736 24.6113 46.9736 22.5565ZM62.7027 22.629C62.7027 21.3961 62.4622 20.3445 61.9812 19.4742C61.5002 18.5797 60.8508 17.9028 60.0331 17.4435C59.2154 16.96 58.3376 16.7183 57.3996 16.7183C56.4616 16.7183 55.5958 16.9479 54.8021 17.4073C54.0084 17.8666 53.3591 18.5435 52.854 19.4379C52.373 20.3082 52.1325 21.3477 52.1325 22.5565C52.1325 23.7652 52.373 24.8289 52.854 25.7476C53.3591 26.642 54.0084 27.331 54.8021 27.8145C55.6198 28.298 56.4857 28.5397 57.3996 28.5397C58.3376 28.5397 59.2154 28.3101 60.0331 27.8508C60.8508 27.3673 61.5002 26.6904 61.9812 25.8201C62.4622 24.9256 62.7027 23.8619 62.7027 22.629Z" fill="#18063C"/>
<path d="M71.0628 22.5565C71.0628 20.5258 71.4596 18.7248 72.2533 17.1534C73.071 15.5821 74.1653 14.3733 75.5362 13.5272C76.9311 12.6811 78.4824 12.258 80.19 12.258C81.6811 12.258 82.9799 12.5602 84.0862 13.1646C85.2166 13.7689 86.1185 14.5305 86.7919 15.4491V12.5844H91.8786V32.6736H86.7919V29.7364C86.1425 30.6792 85.2406 31.4649 84.0862 32.0934C82.9558 32.6978 81.6451 33 80.1539 33C78.4704 33 76.9311 32.5649 75.5362 31.6946C74.1653 30.8243 73.071 29.6034 72.2533 28.0321C71.4596 26.4365 71.0628 24.6113 71.0628 22.5565ZM86.7919 22.629C86.7919 21.3961 86.5514 20.3445 86.0704 19.4742C85.5894 18.5797 84.94 17.9028 84.1223 17.4435C83.3045 16.96 82.4267 16.7183 81.4887 16.7183C80.5508 16.7183 79.6849 16.9479 78.8913 17.4073C78.0976 17.8666 77.4482 18.5435 76.9432 19.4379C76.4621 20.3082 76.2216 21.3477 76.2216 22.5565C76.2216 23.7652 76.4621 24.8289 76.9432 25.7476C77.4482 26.642 78.0976 27.331 78.8913 27.8145C79.709 28.298 80.5748 28.5397 81.4887 28.5397C82.4267 28.5397 83.3045 28.3101 84.1223 27.8508C84.94 27.3673 85.5894 26.6904 86.0704 25.8201C86.5514 24.9256 86.7919 23.8619 86.7919 22.629Z" fill="#18063C"/>
<path d="M105.145 32.9275C103.389 32.9275 101.802 32.6253 100.383 32.0209C98.988 31.4166 97.8817 30.5463 97.0639 29.41C96.2462 28.2738 95.8253 26.9321 95.8013 25.3849H101.213C101.285 26.4245 101.646 27.2464 102.295 27.8508C102.968 28.4551 103.882 28.7573 105.037 28.7573C106.215 28.7573 107.141 28.4793 107.815 27.9233C108.488 27.3431 108.825 26.5937 108.825 25.675C108.825 24.9256 108.596 24.3092 108.139 23.8257C107.682 23.3422 107.105 22.9675 106.408 22.7015C105.734 22.4114 104.796 22.0972 103.594 21.7587C101.958 21.2752 100.623 20.8038 99.5893 20.3445C98.5791 19.861 97.7013 19.1478 96.9557 18.205C96.2342 17.238 95.8734 15.9568 95.8734 14.3612C95.8734 12.8624 96.2462 11.5569 96.9918 10.4449C97.7374 9.33287 98.7836 8.48675 100.13 7.90655C101.477 7.30218 103.016 7 104.748 7C107.346 7 109.45 7.64063 111.061 8.9219C112.697 10.179 113.599 11.9437 113.767 14.2162H108.211C108.163 13.3459 107.791 12.6327 107.093 12.0767C106.42 11.4965 105.518 11.2064 104.387 11.2064C103.401 11.2064 102.608 11.4603 102.006 11.9679C101.429 12.4756 101.141 13.2129 101.141 14.1799C101.141 14.8568 101.357 15.4249 101.79 15.8842C102.247 16.3194 102.8 16.682 103.449 16.9721C104.123 17.238 105.061 17.5523 106.263 17.9149C107.899 18.3984 109.234 18.8819 110.268 19.3654C111.302 19.8489 112.192 20.5742 112.937 21.5411C113.683 22.5081 114.056 23.7773 114.056 25.3487C114.056 26.7025 113.707 27.9596 113.009 29.1199C112.312 30.2803 111.29 31.2111 109.943 31.9121C108.596 32.589 106.997 32.9275 105.145 32.9275Z" fill="#18063C"/>
<path d="M123.954 16.7545V26.4728C123.954 27.1497 124.11 27.6453 124.423 27.9596C124.76 28.2497 125.313 28.3947 126.083 28.3947H128.427V32.6736H125.253C120.996 32.6736 118.867 30.5946 118.867 26.4365V16.7545H116.486V12.5844H118.867V7.61646H123.954V12.5844H128.427V16.7545H123.954Z" fill="#18063C"/>
<path d="M140.574 33C138.65 33 136.918 32.5769 135.379 31.7308C133.84 30.8605 132.625 29.6397 131.735 28.0683C130.87 26.497 130.437 24.6839 130.437 22.629C130.437 20.5742 130.882 18.761 131.772 17.1897C132.685 15.6183 133.924 14.4096 135.487 13.5635C137.051 12.6932 138.794 12.258 140.718 12.258C142.642 12.258 144.386 12.6932 145.949 13.5635C147.513 14.4096 148.739 15.6183 149.629 17.1897C150.543 18.761 151 20.5742 151 22.629C151 24.6839 150.531 26.497 149.593 28.0683C148.679 29.6397 147.428 30.8605 145.841 31.7308C144.278 32.5769 142.522 33 140.574 33ZM140.574 28.576C141.488 28.576 142.342 28.3584 143.135 27.9233C143.953 27.464 144.603 26.7871 145.084 25.8926C145.565 24.9981 145.805 23.9103 145.805 22.629C145.805 20.7192 145.3 19.2566 144.29 18.2413C143.304 17.2018 142.089 16.682 140.646 16.682C139.203 16.682 137.989 17.2018 137.003 18.2413C136.041 19.2566 135.559 20.7192 135.559 22.629C135.559 24.5388 136.028 26.0135 136.966 27.053C137.928 28.0683 139.131 28.576 140.574 28.576Z" fill="#18063C"/>
</svg>
