<svg width="58" height="72" viewBox="0 0 58 72" fill="none" xmlns="http://www.w3.org/2000/svg">
<path opacity="0.5" d="M53.7528 1.63786C53.3698 0.903314 52.4638 0.618388 51.7292 1.00145C50.9947 1.38452 50.7097 2.29052 51.0928 3.02506L53.7528 1.63786ZM36.3139 34.7899L36.0158 33.3199L36.3139 34.7899ZM1.06549 58.2164C0.419059 58.7345 0.315017 59.6786 0.833102 60.325L9.27585 70.8592C9.79394 71.5056 10.738 71.6097 11.3844 71.0916C12.0308 70.5735 12.1349 69.6295 11.6168 68.9831L4.11213 59.6193L13.4759 52.1146C14.1223 51.5965 14.2264 50.6525 13.7083 50.0061C13.1902 49.3596 12.2462 49.2556 11.5997 49.7737L1.06549 58.2164ZM51.0928 3.02506C53.2892 7.23666 55.0892 13.7508 53.5975 19.6766C52.8605 22.6043 51.3179 25.4089 48.5788 27.7757C45.8287 30.1519 41.8024 32.1462 36.0158 33.3199L36.6121 36.26C42.7759 35.0099 47.3121 32.8349 50.5402 30.0457C53.7792 27.247 55.6305 23.8899 56.5067 20.4089C58.2416 13.5172 56.1455 6.22593 53.7528 1.63786L51.0928 3.02506ZM36.0158 33.3199C28.8054 34.7823 23.8794 33.7201 20.7706 31.7043C17.6699 29.6938 16.1915 26.6209 16.0462 23.6283C15.8994 20.6022 17.1129 17.7671 19.2717 16.1744C21.3655 14.6295 24.6447 14.043 29.1163 16.0887L30.3643 13.3607C25.1351 10.9683 20.6512 11.4283 17.4905 13.7603C14.3948 16.0444 12.8626 19.9166 13.0498 23.7737C13.2386 27.6644 15.1741 31.6509 19.1384 34.2214C23.0945 36.7866 28.8844 37.8273 36.6121 36.26L36.0158 33.3199ZM29.1163 16.0887C33.4595 18.0758 35.9131 21.7477 36.6925 26.2105C37.4794 30.7164 36.5473 36.0315 34.0176 41.0555C28.9703 51.0793 17.7418 59.6124 2.1679 57.8959L1.83925 60.8779C18.8249 62.7499 31.1656 53.39 36.6971 42.4047C39.4568 36.9241 40.5666 30.9556 39.6478 25.6944C38.7215 20.3903 35.7218 15.8118 30.3643 13.3607L29.1163 16.0887Z" fill="#D26D60"/>
</svg>
